<?xml version="1.0" standalone="no"?>
<!DOCTYPE svg PUBLIC "-//W3C//DTD SVG 20010904//EN"
 "http://www.w3.org/TR/2001/REC-SVG-20010904/DTD/svg10.dtd">
<svg version="1.0" xmlns="http://www.w3.org/2000/svg"
 width="153.000000pt" height="28.000000pt" viewBox="0 0 153.000000 28.000000"
 preserveAspectRatio="xMidYMid meet">

<g transform="translate(0.000000,28.000000) scale(0.100000,-0.100000)"
fill="#000000" stroke="none">
<path d="M62 154 c-34 -69 -60 -129 -57 -135 11 -17 25 -9 42 26 l17 35 71 0
71 0 17 -35 c17 -35 47 -48 47 -20 0 26 -119 255 -133 255 -7 0 -41 -57 -75
-126z m102 9 l26 -53 -55 0 -55 0 27 55 c15 30 28 53 29 52 1 -1 13 -26 28
-54z"/>
<path d="M256 271 c-9 -14 116 -256 134 -259 17 -3 145 242 135 259 -14 21
-27 4 -79 -98 l-53 -107 -54 104 c-52 100 -70 122 -83 101z"/>
<path d="M624 272 c-16 -10 -134 -248 -127 -256 10 -10 40 -7 68 6 20 9 42 42
82 122 l55 111 50 -99 c27 -54 46 -101 43 -105 -9 -9 -28 20 -61 94 -30 67
-38 75 -48 50 -8 -21 57 -149 86 -169 28 -20 67 -21 74 -2 6 16 -96 225 -120
245 -29 24 -51 2 -106 -106 -30 -59 -61 -109 -69 -111 -8 -3 13 47 47 112 54
104 60 131 26 108z"/>
<path d="M906 265 c-8 -21 -8 -218 0 -239 3 -9 12 -16 20 -16 10 0 14 23 16
97 l3 97 74 -97 c41 -53 80 -97 87 -97 11 0 14 27 14 128 0 71 -3 132 -7 135
-3 4 -12 2 -20 -4 -9 -8 -13 -37 -13 -96 l0 -85 -72 93 c-77 98 -92 110 -102
84z"/>
<path d="M1185 270 c-12 -20 7 -30 56 -30 l49 0 0 -115 c0 -92 3 -115 14 -115
21 0 26 23 26 130 l0 99 47 3 c36 2 49 7 51 21 3 15 -8 17 -117 17 -69 0 -122
-4 -126 -10z"/>
<path d="M1497 274 c-4 -4 -7 -65 -7 -136 0 -118 2 -129 18 -126 15 3 17 17
17 132 0 121 -7 151 -28 130z"/>
</g>
</svg>
